# xmcd
#
# Track frame offsets:
# 150
# 12867
# 27980
# 41864
# 58479
# 72919
# 94627
# 108663
# 124668
# 139322
# 154929
# 171092
# 181758
#
# Disc length: 2703 seconds
#
#
# Revision: 2
# Processed by: cddbd v1.4PL0 Copyright (c) Steve Scherf et al.
# Submitted via: FreeRIP 2.12 
#
DISCID=b70a8d0d
DTITLE=Original de la Sierra - Sigo Siendo Original
DYEAR=2003
DGENRE=Latin
TTITLE0=El Parquecito
TTITLE1=Un Riconcito En El Cielo
TTITLE2=Asi Que Adios
TTITLE3=Mi Querido Mazatlan
TTITLE4=Yo No Bailo Con Juana
TTITLE5=Si Me Acuerdo
TTITLE6=Ay Amor
TTITLE7=Prieto Crispin
TTITLE8=Un Cariño Como Tu 
TTITLE9=Si Te Vas
TTITLE10=El Amor De Mi Vida
TTITLE11=Soy Como Quiero Ser
TTITLE12=Si Me Acuerdo (Remix)
EXTD=
EXTT0=
EXTT1=
EXTT2=
EXTT3=
EXTT4=
EXTT5=
EXTT6=
EXTT7=
EXTT8=
EXTT9=
EXTT10=
EXTT11=
EXTT12=
PLAYORDER=
